G04*
G04 #@! TF.GenerationSoftware,Altium Limited,CircuitMaker,2.2.1 (2.2.1.6)*
G04*
G04 Layer_Color=8150272*
%FSLAX25Y25*%
%MOIN*%
G70*
G04*
G04 #@! TF.SameCoordinates,7D6918CB-AAF1-45DD-B34D-4DF02806F7BC*
G04*
G04*
G04 #@! TF.FilePolarity,Negative*
G04*
G01*
G75*
%ADD13R,0.04934X0.04343*%
%ADD14R,0.04343X0.04934*%
%ADD19R,0.03359X0.05524*%
%ADD20C,0.00800*%
%ADD21R,0.06706X0.06706*%
%ADD24C,0.07887*%
%ADD25R,0.06706X0.06706*%
%ADD26C,0.06800*%
%ADD27R,0.06800X0.06800*%
%ADD28C,0.07800*%
%ADD29R,0.06800X0.06800*%
%ADD30C,0.03800*%
%ADD31C,0.05800*%
%ADD53R,0.24422X0.06312*%
%ADD54R,0.00800X0.00800*%
%ADD55R,0.00800X0.00800*%
D13*
X268898Y114272D02*
D03*
Y119587D02*
D03*
X277953Y114272D02*
D03*
Y119587D02*
D03*
X158661Y143898D02*
D03*
Y149213D02*
D03*
D14*
X159153Y135039D02*
D03*
X164469D02*
D03*
D19*
X286811Y118110D02*
D03*
X294291D02*
D03*
X290551Y107874D02*
D03*
X165157Y157874D02*
D03*
X157677D02*
D03*
X161417Y168110D02*
D03*
D20*
X175197Y216142D02*
D03*
X68110Y215748D02*
D03*
X8661Y8661D02*
D03*
X199606D02*
D03*
D21*
X239173Y174213D02*
D03*
X249173D02*
D03*
X214488D02*
D03*
X224488D02*
D03*
X45118Y179134D02*
D03*
X55118D02*
D03*
X173228Y185039D02*
D03*
X163228D02*
D03*
D24*
X176654Y9843D02*
D03*
X166654D02*
D03*
X156653D02*
D03*
X146653D02*
D03*
X136653D02*
D03*
X126654D02*
D03*
X116654D02*
D03*
X106653D02*
D03*
D25*
X309055Y95000D02*
D03*
Y105000D02*
D03*
X64468Y191772D02*
D03*
Y201772D02*
D03*
D26*
X204961Y101811D02*
D03*
Y111811D02*
D03*
Y121811D02*
D03*
Y131811D02*
D03*
Y141811D02*
D03*
Y151811D02*
D03*
Y161811D02*
D03*
Y171811D02*
D03*
X174961D02*
D03*
Y161811D02*
D03*
Y151811D02*
D03*
Y141811D02*
D03*
Y131811D02*
D03*
Y121811D02*
D03*
Y111811D02*
D03*
X167126Y25591D02*
D03*
X157126D02*
D03*
X147126D02*
D03*
X137126D02*
D03*
X127126D02*
D03*
X117126D02*
D03*
X107126D02*
D03*
Y55590D02*
D03*
X117126D02*
D03*
X127126D02*
D03*
X137126D02*
D03*
X147126D02*
D03*
X157126D02*
D03*
X167126D02*
D03*
X177126D02*
D03*
D27*
X174961Y101811D02*
D03*
D28*
X148425Y138898D02*
D03*
Y148898D02*
D03*
X88425Y218898D02*
D03*
Y208898D02*
D03*
Y198898D02*
D03*
Y188898D02*
D03*
Y178898D02*
D03*
Y168898D02*
D03*
Y158898D02*
D03*
Y148898D02*
D03*
Y138898D02*
D03*
Y128898D02*
D03*
Y118898D02*
D03*
Y108898D02*
D03*
X148425Y218898D02*
D03*
Y208898D02*
D03*
Y198898D02*
D03*
Y188898D02*
D03*
Y178898D02*
D03*
Y168898D02*
D03*
Y158898D02*
D03*
Y128898D02*
D03*
Y118898D02*
D03*
Y108898D02*
D03*
D29*
X177126Y25591D02*
D03*
D30*
X255906Y123622D02*
D03*
X167433Y169574D02*
D03*
X109055Y167323D02*
D03*
X129134D02*
D03*
X193307Y134252D02*
D03*
X157087Y174016D02*
D03*
X166535Y84252D02*
D03*
X163647Y100560D02*
D03*
X78051Y131890D02*
D03*
X72835Y150000D02*
D03*
X293553Y126673D02*
D03*
X121653Y182677D02*
D03*
X64961Y111221D02*
D03*
X64945Y117110D02*
D03*
X57776Y118898D02*
D03*
X49311Y83661D02*
D03*
X32677Y37795D02*
D03*
X56102Y15059D02*
D03*
X240108Y106988D02*
D03*
X206693Y39370D02*
D03*
X257874Y19685D02*
D03*
X293307Y70866D02*
D03*
X329724Y120079D02*
D03*
X286417Y178150D02*
D03*
D31*
X129528Y102362D02*
D03*
X133858Y122047D02*
D03*
X134646Y171260D02*
D03*
X161417Y33465D02*
D03*
X84646Y27559D02*
D03*
X73819Y116142D02*
D03*
D53*
X49140Y148920D02*
D03*
X49067Y138937D02*
D03*
Y128937D02*
D03*
Y118937D02*
D03*
Y108937D02*
D03*
D54*
X23228Y59449D02*
D03*
X11417D02*
D03*
X23228Y33858D02*
D03*
X11417D02*
D03*
X193898Y48228D02*
D03*
X205709D02*
D03*
X193898Y73819D02*
D03*
X205709D02*
D03*
X237205Y19685D02*
D03*
X249016D02*
D03*
X237205Y45276D02*
D03*
X249016D02*
D03*
X90158Y59055D02*
D03*
X78347D02*
D03*
X90158Y33465D02*
D03*
X78347D02*
D03*
X285433Y97441D02*
D03*
X273622D02*
D03*
X285433Y71850D02*
D03*
X273622D02*
D03*
X324803Y137795D02*
D03*
X312992D02*
D03*
X324803Y112205D02*
D03*
X312992D02*
D03*
X245079Y137795D02*
D03*
X233268D02*
D03*
X245079Y112205D02*
D03*
X233268D02*
D03*
X57087Y94116D02*
D03*
X45276D02*
D03*
X57087Y68526D02*
D03*
X45276D02*
D03*
D55*
X62992Y7874D02*
D03*
Y19685D02*
D03*
X37402Y7874D02*
D03*
Y19685D02*
D03*
X265748Y171260D02*
D03*
Y159449D02*
D03*
X291339Y171260D02*
D03*
Y159449D02*
D03*
M02*
