G04*
G04 #@! TF.GenerationSoftware,Altium Limited,CircuitMaker,2.2.1 (2.2.1.6)*
G04*
G04 Layer_Color=13813960*
%FSLAX25Y25*%
%MOIN*%
G70*
G04*
G04 #@! TF.SameCoordinates,7D6918CB-AAF1-45DD-B34D-4DF02806F7BC*
G04*
G04*
G04 #@! TF.FilePolarity,Positive*
G04*
G01*
G75*
%ADD10C,0.00984*%
%ADD11C,0.00787*%
%ADD56C,0.00800*%
G36*
X276554Y128411D02*
X276635Y128406D01*
X276710Y128392D01*
X276781Y128377D01*
X276847Y128359D01*
X276909Y128340D01*
X276966Y128316D01*
X277018Y128292D01*
X277065Y128269D01*
X277103Y128245D01*
X277136Y128226D01*
X277164Y128207D01*
X277188Y128193D01*
X277202Y128179D01*
X277211Y128174D01*
X277216Y128169D01*
X277264Y128122D01*
X277306Y128070D01*
X277349Y128013D01*
X277382Y127956D01*
X277439Y127843D01*
X277476Y127729D01*
X277491Y127677D01*
X277505Y127625D01*
X277514Y127583D01*
X277524Y127545D01*
X277529Y127512D01*
Y127488D01*
X277533Y127474D01*
Y127469D01*
X277122Y127427D01*
X277112Y127535D01*
X277093Y127630D01*
X277065Y127715D01*
X277032Y127781D01*
X277003Y127838D01*
X276975Y127876D01*
X276956Y127900D01*
X276947Y127909D01*
X276876Y127966D01*
X276800Y128008D01*
X276720Y128042D01*
X276649Y128061D01*
X276583Y128075D01*
X276526Y128079D01*
X276507Y128084D01*
X276478D01*
X276379Y128079D01*
X276289Y128061D01*
X276214Y128032D01*
X276147Y128004D01*
X276095Y127971D01*
X276062Y127947D01*
X276039Y127928D01*
X276029Y127919D01*
X275972Y127852D01*
X275930Y127786D01*
X275897Y127720D01*
X275878Y127654D01*
X275864Y127602D01*
X275859Y127555D01*
X275854Y127526D01*
Y127521D01*
Y127517D01*
X275864Y127431D01*
X275882Y127342D01*
X275916Y127261D01*
X275949Y127185D01*
X275987Y127124D01*
X276020Y127072D01*
X276029Y127053D01*
X276039Y127039D01*
X276048Y127034D01*
Y127029D01*
X276086Y126977D01*
X276133Y126925D01*
X276185Y126869D01*
X276242Y126812D01*
X276360Y126698D01*
X276478Y126585D01*
X276540Y126533D01*
X276592Y126486D01*
X276644Y126443D01*
X276687Y126405D01*
X276720Y126377D01*
X276748Y126353D01*
X276767Y126339D01*
X276772Y126334D01*
X276890Y126235D01*
X276999Y126140D01*
X277089Y126055D01*
X277160Y125984D01*
X277221Y125923D01*
X277264Y125880D01*
X277287Y125852D01*
X277297Y125847D01*
Y125842D01*
X277363Y125762D01*
X277415Y125686D01*
X277462Y125610D01*
X277500Y125544D01*
X277529Y125487D01*
X277547Y125445D01*
X277557Y125417D01*
X277562Y125412D01*
Y125407D01*
X277580Y125355D01*
X277590Y125308D01*
X277599Y125260D01*
X277604Y125218D01*
X277609Y125180D01*
Y125152D01*
Y125133D01*
Y125128D01*
X275438D01*
Y125516D01*
X277051D01*
X276994Y125596D01*
X276966Y125629D01*
X276942Y125663D01*
X276918Y125691D01*
X276899Y125710D01*
X276885Y125724D01*
X276880Y125729D01*
X276857Y125752D01*
X276828Y125776D01*
X276762Y125838D01*
X276687Y125908D01*
X276606Y125979D01*
X276530Y126041D01*
X276497Y126069D01*
X276469Y126098D01*
X276445Y126117D01*
X276426Y126131D01*
X276417Y126140D01*
X276412Y126145D01*
X276337Y126211D01*
X276261Y126273D01*
X276195Y126334D01*
X276133Y126386D01*
X276076Y126438D01*
X276029Y126486D01*
X275982Y126528D01*
X275944Y126566D01*
X275906Y126604D01*
X275878Y126632D01*
X275854Y126656D01*
X275830Y126679D01*
X275807Y126708D01*
X275797Y126717D01*
X275731Y126798D01*
X275674Y126869D01*
X275627Y126940D01*
X275589Y126996D01*
X275561Y127048D01*
X275542Y127086D01*
X275532Y127110D01*
X275528Y127119D01*
X275499Y127190D01*
X275480Y127261D01*
X275461Y127327D01*
X275452Y127384D01*
X275447Y127436D01*
X275443Y127474D01*
Y127498D01*
Y127507D01*
X275447Y127578D01*
X275457Y127644D01*
X275466Y127711D01*
X275485Y127767D01*
X275532Y127881D01*
X275580Y127971D01*
X275608Y128013D01*
X275632Y128046D01*
X275655Y128079D01*
X275679Y128103D01*
X275698Y128122D01*
X275707Y128141D01*
X275717Y128146D01*
X275722Y128150D01*
X275774Y128198D01*
X275830Y128240D01*
X275892Y128273D01*
X275953Y128302D01*
X276076Y128349D01*
X276199Y128382D01*
X276251Y128392D01*
X276303Y128401D01*
X276351Y128406D01*
X276389Y128411D01*
X276422Y128415D01*
X276469D01*
X276554Y128411D01*
D02*
G37*
G36*
X280683Y125128D02*
X280248D01*
Y126580D01*
X279690D01*
X279638Y126575D01*
X279600D01*
X279567Y126571D01*
X279543Y126566D01*
X279524D01*
X279515Y126561D01*
X279510D01*
X279435Y126538D01*
X279401Y126523D01*
X279373Y126509D01*
X279345Y126495D01*
X279326Y126486D01*
X279316Y126481D01*
X279312Y126476D01*
X279274Y126448D01*
X279236Y126415D01*
X279165Y126344D01*
X279132Y126311D01*
X279108Y126282D01*
X279094Y126263D01*
X279089Y126258D01*
X279042Y126192D01*
X278990Y126121D01*
X278938Y126046D01*
X278886Y125975D01*
X278843Y125908D01*
X278810Y125856D01*
X278796Y125838D01*
X278787Y125823D01*
X278777Y125814D01*
Y125809D01*
X278347Y125128D01*
X277807D01*
X278370Y126017D01*
X278437Y126112D01*
X278498Y126197D01*
X278560Y126268D01*
X278612Y126334D01*
X278659Y126381D01*
X278697Y126419D01*
X278720Y126443D01*
X278730Y126452D01*
X278768Y126481D01*
X278810Y126514D01*
X278895Y126566D01*
X278933Y126585D01*
X278962Y126604D01*
X278981Y126613D01*
X278990Y126618D01*
X278905Y126632D01*
X278824Y126646D01*
X278753Y126670D01*
X278683Y126689D01*
X278621Y126713D01*
X278564Y126741D01*
X278512Y126765D01*
X278465Y126788D01*
X278427Y126817D01*
X278389Y126840D01*
X278361Y126859D01*
X278337Y126878D01*
X278318Y126892D01*
X278304Y126907D01*
X278299Y126911D01*
X278295Y126916D01*
X278257Y126963D01*
X278219Y127011D01*
X278162Y127110D01*
X278124Y127209D01*
X278096Y127304D01*
X278077Y127384D01*
X278072Y127417D01*
Y127450D01*
X278068Y127474D01*
Y127493D01*
Y127502D01*
Y127507D01*
X278072Y127606D01*
X278087Y127696D01*
X278110Y127781D01*
X278134Y127852D01*
X278162Y127914D01*
X278181Y127961D01*
X278200Y127990D01*
X278205Y127994D01*
Y127999D01*
X278262Y128075D01*
X278318Y128141D01*
X278380Y128198D01*
X278437Y128240D01*
X278489Y128273D01*
X278531Y128292D01*
X278560Y128306D01*
X278564Y128311D01*
X278569D01*
X278612Y128325D01*
X278664Y128340D01*
X278768Y128363D01*
X278881Y128377D01*
X278985Y128392D01*
X279085Y128396D01*
X279127D01*
X279165Y128401D01*
X280683D01*
Y125128D01*
D02*
G37*
G36*
X274979Y127971D02*
X273376D01*
X273489Y127833D01*
X273598Y127687D01*
X273692Y127545D01*
X273782Y127408D01*
X273820Y127346D01*
X273853Y127290D01*
X273886Y127238D01*
X273910Y127195D01*
X273929Y127157D01*
X273943Y127134D01*
X273953Y127115D01*
X273957Y127110D01*
X274052Y126921D01*
X274137Y126731D01*
X274208Y126552D01*
X274236Y126471D01*
X274265Y126391D01*
X274293Y126320D01*
X274312Y126254D01*
X274331Y126197D01*
X274345Y126150D01*
X274359Y126107D01*
X274369Y126079D01*
X274374Y126060D01*
Y126055D01*
X274421Y125861D01*
X274440Y125767D01*
X274454Y125681D01*
X274468Y125601D01*
X274482Y125521D01*
X274492Y125454D01*
X274501Y125388D01*
X274506Y125331D01*
X274511Y125279D01*
X274515Y125232D01*
Y125194D01*
X274520Y125166D01*
Y125147D01*
Y125133D01*
Y125128D01*
X274109D01*
X274095Y125308D01*
X274071Y125473D01*
X274047Y125625D01*
X274033Y125696D01*
X274019Y125762D01*
X274009Y125819D01*
X273995Y125871D01*
X273986Y125918D01*
X273976Y125956D01*
X273967Y125984D01*
X273962Y126008D01*
X273957Y126022D01*
Y126027D01*
X273886Y126244D01*
X273811Y126448D01*
X273773Y126547D01*
X273735Y126642D01*
X273692Y126727D01*
X273655Y126812D01*
X273622Y126888D01*
X273588Y126954D01*
X273560Y127011D01*
X273536Y127063D01*
X273513Y127105D01*
X273499Y127134D01*
X273489Y127152D01*
X273484Y127157D01*
X273428Y127257D01*
X273371Y127356D01*
X273314Y127446D01*
X273257Y127531D01*
X273205Y127606D01*
X273153Y127682D01*
X273101Y127748D01*
X273059Y127805D01*
X273016Y127862D01*
X272978Y127909D01*
X272940Y127947D01*
X272912Y127980D01*
X272893Y128008D01*
X272874Y128027D01*
X272865Y128037D01*
X272860Y128042D01*
Y128359D01*
X274979D01*
Y127971D01*
D02*
G37*
G36*
X265530Y128439D02*
X265611Y128434D01*
X265686Y128420D01*
X265757Y128406D01*
X265824Y128387D01*
X265885Y128368D01*
X265942Y128344D01*
X265994Y128321D01*
X266041Y128297D01*
X266079Y128273D01*
X266112Y128254D01*
X266141Y128236D01*
X266164Y128221D01*
X266178Y128207D01*
X266188Y128202D01*
X266193Y128198D01*
X266240Y128150D01*
X266283Y128098D01*
X266325Y128042D01*
X266358Y127985D01*
X266415Y127871D01*
X266453Y127758D01*
X266467Y127706D01*
X266481Y127654D01*
X266491Y127611D01*
X266500Y127573D01*
X266505Y127540D01*
Y127517D01*
X266510Y127502D01*
Y127498D01*
X266098Y127455D01*
X266089Y127564D01*
X266070Y127658D01*
X266041Y127744D01*
X266008Y127810D01*
X265980Y127867D01*
X265951Y127904D01*
X265932Y127928D01*
X265923Y127938D01*
X265852Y127994D01*
X265776Y128037D01*
X265696Y128070D01*
X265625Y128089D01*
X265559Y128103D01*
X265502Y128108D01*
X265483Y128113D01*
X265455D01*
X265355Y128108D01*
X265266Y128089D01*
X265190Y128061D01*
X265124Y128032D01*
X265072Y127999D01*
X265038Y127975D01*
X265015Y127956D01*
X265005Y127947D01*
X264949Y127881D01*
X264906Y127815D01*
X264873Y127748D01*
X264854Y127682D01*
X264840Y127630D01*
X264835Y127583D01*
X264830Y127555D01*
Y127550D01*
Y127545D01*
X264840Y127460D01*
X264859Y127370D01*
X264892Y127290D01*
X264925Y127214D01*
X264963Y127152D01*
X264996Y127100D01*
X265005Y127082D01*
X265015Y127067D01*
X265024Y127063D01*
Y127058D01*
X265062Y127006D01*
X265109Y126954D01*
X265161Y126897D01*
X265218Y126840D01*
X265336Y126727D01*
X265455Y126613D01*
X265516Y126561D01*
X265568Y126514D01*
X265620Y126471D01*
X265663Y126434D01*
X265696Y126405D01*
X265724Y126381D01*
X265743Y126367D01*
X265748Y126363D01*
X265866Y126263D01*
X265975Y126169D01*
X266065Y126083D01*
X266136Y126013D01*
X266197Y125951D01*
X266240Y125908D01*
X266264Y125880D01*
X266273Y125875D01*
Y125871D01*
X266339Y125790D01*
X266391Y125715D01*
X266439Y125639D01*
X266476Y125573D01*
X266505Y125516D01*
X266524Y125473D01*
X266533Y125445D01*
X266538Y125440D01*
Y125435D01*
X266557Y125383D01*
X266566Y125336D01*
X266576Y125289D01*
X266581Y125246D01*
X266585Y125208D01*
Y125180D01*
Y125161D01*
Y125156D01*
X264414D01*
Y125544D01*
X266027D01*
X265970Y125625D01*
X265942Y125658D01*
X265918Y125691D01*
X265895Y125719D01*
X265876Y125738D01*
X265862Y125752D01*
X265857Y125757D01*
X265833Y125781D01*
X265805Y125804D01*
X265739Y125866D01*
X265663Y125937D01*
X265582Y126008D01*
X265507Y126069D01*
X265474Y126098D01*
X265445Y126126D01*
X265422Y126145D01*
X265403Y126159D01*
X265393Y126169D01*
X265388Y126173D01*
X265313Y126240D01*
X265237Y126301D01*
X265171Y126363D01*
X265109Y126415D01*
X265053Y126467D01*
X265005Y126514D01*
X264958Y126556D01*
X264920Y126594D01*
X264882Y126632D01*
X264854Y126661D01*
X264830Y126684D01*
X264807Y126708D01*
X264783Y126736D01*
X264774Y126746D01*
X264707Y126826D01*
X264651Y126897D01*
X264603Y126968D01*
X264565Y127025D01*
X264537Y127077D01*
X264518Y127115D01*
X264509Y127138D01*
X264504Y127148D01*
X264476Y127219D01*
X264457Y127290D01*
X264438Y127356D01*
X264428Y127413D01*
X264424Y127465D01*
X264419Y127502D01*
Y127526D01*
Y127535D01*
X264424Y127606D01*
X264433Y127673D01*
X264442Y127739D01*
X264461Y127796D01*
X264509Y127909D01*
X264556Y127999D01*
X264584Y128042D01*
X264608Y128075D01*
X264632Y128108D01*
X264655Y128131D01*
X264674Y128150D01*
X264684Y128169D01*
X264693Y128174D01*
X264698Y128179D01*
X264750Y128226D01*
X264807Y128269D01*
X264868Y128302D01*
X264930Y128330D01*
X265053Y128377D01*
X265176Y128411D01*
X265228Y128420D01*
X265280Y128429D01*
X265327Y128434D01*
X265365Y128439D01*
X265398Y128444D01*
X265445D01*
X265530Y128439D01*
D02*
G37*
G36*
X262919D02*
X263009Y128429D01*
X263094Y128411D01*
X263175Y128387D01*
X263246Y128354D01*
X263317Y128325D01*
X263378Y128288D01*
X263435Y128254D01*
X263482Y128221D01*
X263530Y128184D01*
X263567Y128155D01*
X263596Y128127D01*
X263619Y128098D01*
X263638Y128079D01*
X263648Y128070D01*
X263653Y128065D01*
X263714Y127980D01*
X263766Y127881D01*
X263813Y127777D01*
X263856Y127668D01*
X263889Y127555D01*
X263917Y127441D01*
X263941Y127323D01*
X263960Y127214D01*
X263974Y127105D01*
X263984Y127006D01*
X263993Y126916D01*
X263998Y126840D01*
Y126774D01*
X264003Y126727D01*
Y126708D01*
Y126694D01*
Y126689D01*
Y126684D01*
X263998Y126533D01*
X263988Y126391D01*
X263974Y126258D01*
X263951Y126136D01*
X263927Y126027D01*
X263903Y125927D01*
X263875Y125838D01*
X263842Y125757D01*
X263813Y125691D01*
X263785Y125629D01*
X263761Y125582D01*
X263733Y125540D01*
X263714Y125506D01*
X263700Y125487D01*
X263690Y125473D01*
X263686Y125469D01*
X263624Y125402D01*
X263558Y125346D01*
X263492Y125298D01*
X263426Y125256D01*
X263355Y125218D01*
X263288Y125189D01*
X263222Y125166D01*
X263156Y125147D01*
X263099Y125133D01*
X263042Y125119D01*
X262995Y125109D01*
X262953Y125104D01*
X262915D01*
X262891Y125100D01*
X262867D01*
X262759Y125104D01*
X262659Y125123D01*
X262569Y125142D01*
X262489Y125171D01*
X262428Y125194D01*
X262380Y125218D01*
X262361Y125223D01*
X262347Y125232D01*
X262342Y125237D01*
X262338D01*
X262257Y125294D01*
X262182Y125360D01*
X262120Y125426D01*
X262068Y125492D01*
X262025Y125554D01*
X261997Y125601D01*
X261988Y125620D01*
X261978Y125634D01*
X261974Y125639D01*
Y125644D01*
X261926Y125743D01*
X261893Y125847D01*
X261869Y125942D01*
X261855Y126031D01*
X261841Y126107D01*
Y126136D01*
X261836Y126164D01*
Y126188D01*
Y126202D01*
Y126211D01*
Y126216D01*
X261841Y126301D01*
X261851Y126381D01*
X261865Y126462D01*
X261879Y126533D01*
X261902Y126599D01*
X261926Y126665D01*
X261950Y126722D01*
X261978Y126774D01*
X262007Y126821D01*
X262030Y126864D01*
X262054Y126897D01*
X262078Y126930D01*
X262092Y126954D01*
X262106Y126968D01*
X262115Y126977D01*
X262120Y126982D01*
X262172Y127034D01*
X262229Y127082D01*
X262290Y127119D01*
X262347Y127152D01*
X262404Y127185D01*
X262461Y127209D01*
X262569Y127242D01*
X262617Y127257D01*
X262664Y127266D01*
X262702Y127271D01*
X262740Y127275D01*
X262768Y127280D01*
X262806D01*
X262891Y127275D01*
X262971Y127261D01*
X263047Y127247D01*
X263113Y127228D01*
X263170Y127204D01*
X263213Y127190D01*
X263241Y127176D01*
X263246Y127171D01*
X263251D01*
X263326Y127124D01*
X263392Y127072D01*
X263454Y127020D01*
X263501Y126963D01*
X263544Y126916D01*
X263577Y126878D01*
X263596Y126850D01*
X263601Y126845D01*
Y126930D01*
X263596Y127015D01*
X263591Y127091D01*
X263582Y127167D01*
X263577Y127233D01*
X263567Y127294D01*
X263558Y127351D01*
X263544Y127403D01*
X263534Y127450D01*
X263525Y127488D01*
X263515Y127521D01*
X263511Y127550D01*
X263501Y127569D01*
X263496Y127583D01*
X263492Y127592D01*
Y127597D01*
X263444Y127692D01*
X263397Y127777D01*
X263345Y127843D01*
X263298Y127900D01*
X263255Y127947D01*
X263222Y127980D01*
X263199Y127999D01*
X263189Y128004D01*
X263132Y128042D01*
X263076Y128065D01*
X263019Y128084D01*
X262962Y128098D01*
X262919Y128108D01*
X262882Y128113D01*
X262848D01*
X262763Y128103D01*
X262683Y128084D01*
X262617Y128056D01*
X262555Y128027D01*
X262508Y127994D01*
X262475Y127966D01*
X262456Y127947D01*
X262446Y127938D01*
X262413Y127895D01*
X262380Y127843D01*
X262352Y127786D01*
X262333Y127729D01*
X262314Y127677D01*
X262300Y127635D01*
X262295Y127606D01*
X262290Y127602D01*
Y127597D01*
X261888Y127630D01*
X261917Y127763D01*
X261959Y127881D01*
X262007Y127985D01*
X262059Y128070D01*
X262111Y128136D01*
X262130Y128165D01*
X262153Y128188D01*
X262167Y128202D01*
X262182Y128217D01*
X262186Y128221D01*
X262191Y128226D01*
X262238Y128264D01*
X262290Y128297D01*
X262394Y128354D01*
X262498Y128392D01*
X262598Y128415D01*
X262688Y128434D01*
X262726Y128439D01*
X262759D01*
X262787Y128444D01*
X262825D01*
X262919Y128439D01*
D02*
G37*
G36*
X269660Y125156D02*
X269225D01*
Y126609D01*
X268666D01*
X268614Y126604D01*
X268577D01*
X268544Y126599D01*
X268520Y126594D01*
X268501D01*
X268491Y126590D01*
X268487D01*
X268411Y126566D01*
X268378Y126552D01*
X268350Y126538D01*
X268321Y126523D01*
X268302Y126514D01*
X268293Y126509D01*
X268288Y126504D01*
X268250Y126476D01*
X268212Y126443D01*
X268141Y126372D01*
X268108Y126339D01*
X268085Y126311D01*
X268071Y126292D01*
X268066Y126287D01*
X268018Y126221D01*
X267966Y126150D01*
X267914Y126074D01*
X267862Y126003D01*
X267820Y125937D01*
X267787Y125885D01*
X267773Y125866D01*
X267763Y125852D01*
X267754Y125842D01*
Y125838D01*
X267323Y125156D01*
X266784D01*
X267347Y126046D01*
X267413Y126140D01*
X267475Y126225D01*
X267536Y126296D01*
X267588Y126363D01*
X267635Y126410D01*
X267673Y126448D01*
X267697Y126471D01*
X267706Y126481D01*
X267744Y126509D01*
X267787Y126542D01*
X267872Y126594D01*
X267910Y126613D01*
X267938Y126632D01*
X267957Y126642D01*
X267966Y126646D01*
X267881Y126661D01*
X267801Y126675D01*
X267730Y126698D01*
X267659Y126717D01*
X267598Y126741D01*
X267541Y126769D01*
X267489Y126793D01*
X267441Y126817D01*
X267404Y126845D01*
X267366Y126869D01*
X267337Y126888D01*
X267314Y126907D01*
X267295Y126921D01*
X267281Y126935D01*
X267276Y126940D01*
X267271Y126944D01*
X267233Y126992D01*
X267195Y127039D01*
X267139Y127138D01*
X267101Y127238D01*
X267072Y127332D01*
X267054Y127413D01*
X267049Y127446D01*
Y127479D01*
X267044Y127502D01*
Y127521D01*
Y127531D01*
Y127535D01*
X267049Y127635D01*
X267063Y127725D01*
X267087Y127810D01*
X267110Y127881D01*
X267139Y127942D01*
X267158Y127990D01*
X267177Y128018D01*
X267181Y128023D01*
Y128027D01*
X267238Y128103D01*
X267295Y128169D01*
X267356Y128226D01*
X267413Y128269D01*
X267465Y128302D01*
X267508Y128321D01*
X267536Y128335D01*
X267541Y128340D01*
X267545D01*
X267588Y128354D01*
X267640Y128368D01*
X267744Y128392D01*
X267858Y128406D01*
X267962Y128420D01*
X268061Y128425D01*
X268104D01*
X268141Y128429D01*
X269660D01*
Y125156D01*
D02*
G37*
G36*
X161605Y130014D02*
X161686Y130009D01*
X161761Y129995D01*
X161832Y129981D01*
X161899Y129962D01*
X161960Y129943D01*
X162017Y129919D01*
X162069Y129895D01*
X162116Y129872D01*
X162154Y129848D01*
X162187Y129829D01*
X162215Y129810D01*
X162239Y129796D01*
X162253Y129782D01*
X162263Y129777D01*
X162267Y129773D01*
X162315Y129725D01*
X162357Y129673D01*
X162400Y129616D01*
X162433Y129560D01*
X162490Y129446D01*
X162528Y129333D01*
X162542Y129281D01*
X162556Y129229D01*
X162566Y129186D01*
X162575Y129148D01*
X162580Y129115D01*
Y129091D01*
X162584Y129077D01*
Y129072D01*
X162173Y129030D01*
X162163Y129139D01*
X162144Y129233D01*
X162116Y129318D01*
X162083Y129385D01*
X162055Y129441D01*
X162026Y129479D01*
X162007Y129503D01*
X161998Y129512D01*
X161927Y129569D01*
X161851Y129612D01*
X161771Y129645D01*
X161700Y129664D01*
X161634Y129678D01*
X161577Y129683D01*
X161558Y129687D01*
X161530D01*
X161430Y129683D01*
X161340Y129664D01*
X161265Y129635D01*
X161198Y129607D01*
X161146Y129574D01*
X161113Y129550D01*
X161090Y129531D01*
X161080Y129522D01*
X161023Y129456D01*
X160981Y129389D01*
X160948Y129323D01*
X160929Y129257D01*
X160915Y129205D01*
X160910Y129158D01*
X160905Y129129D01*
Y129124D01*
Y129120D01*
X160915Y129035D01*
X160934Y128945D01*
X160967Y128864D01*
X161000Y128789D01*
X161038Y128727D01*
X161071Y128675D01*
X161080Y128656D01*
X161090Y128642D01*
X161099Y128637D01*
Y128633D01*
X161137Y128581D01*
X161184Y128529D01*
X161236Y128472D01*
X161293Y128415D01*
X161411Y128302D01*
X161530Y128188D01*
X161591Y128136D01*
X161643Y128089D01*
X161695Y128046D01*
X161738Y128008D01*
X161771Y127980D01*
X161799Y127956D01*
X161818Y127942D01*
X161823Y127937D01*
X161941Y127838D01*
X162050Y127743D01*
X162140Y127658D01*
X162211Y127587D01*
X162272Y127526D01*
X162315Y127483D01*
X162338Y127455D01*
X162348Y127450D01*
Y127445D01*
X162414Y127365D01*
X162466Y127289D01*
X162513Y127214D01*
X162551Y127147D01*
X162580Y127091D01*
X162599Y127048D01*
X162608Y127020D01*
X162613Y127015D01*
Y127010D01*
X162632Y126958D01*
X162641Y126911D01*
X162651Y126864D01*
X162655Y126821D01*
X162660Y126783D01*
Y126755D01*
Y126736D01*
Y126731D01*
X160489D01*
Y127119D01*
X162102D01*
X162045Y127199D01*
X162017Y127233D01*
X161993Y127266D01*
X161969Y127294D01*
X161951Y127313D01*
X161936Y127327D01*
X161932Y127332D01*
X161908Y127356D01*
X161880Y127379D01*
X161813Y127441D01*
X161738Y127512D01*
X161657Y127583D01*
X161582Y127644D01*
X161548Y127672D01*
X161520Y127701D01*
X161496Y127720D01*
X161477Y127734D01*
X161468Y127743D01*
X161463Y127748D01*
X161388Y127814D01*
X161312Y127876D01*
X161246Y127937D01*
X161184Y127989D01*
X161127Y128041D01*
X161080Y128089D01*
X161033Y128131D01*
X160995Y128169D01*
X160957Y128207D01*
X160929Y128235D01*
X160905Y128259D01*
X160882Y128283D01*
X160858Y128311D01*
X160848Y128321D01*
X160782Y128401D01*
X160725Y128472D01*
X160678Y128543D01*
X160640Y128600D01*
X160612Y128651D01*
X160593Y128689D01*
X160584Y128713D01*
X160579Y128723D01*
X160550Y128794D01*
X160531Y128864D01*
X160513Y128931D01*
X160503Y128987D01*
X160498Y129039D01*
X160494Y129077D01*
Y129101D01*
Y129110D01*
X160498Y129181D01*
X160508Y129247D01*
X160517Y129314D01*
X160536Y129370D01*
X160584Y129484D01*
X160631Y129574D01*
X160659Y129616D01*
X160683Y129650D01*
X160707Y129683D01*
X160730Y129706D01*
X160749Y129725D01*
X160759Y129744D01*
X160768Y129749D01*
X160773Y129754D01*
X160825Y129801D01*
X160882Y129843D01*
X160943Y129877D01*
X161004Y129905D01*
X161127Y129952D01*
X161250Y129985D01*
X161302Y129995D01*
X161355Y130004D01*
X161402Y130009D01*
X161440Y130014D01*
X161473Y130018D01*
X161520D01*
X161605Y130014D01*
D02*
G37*
G36*
X159988Y128278D02*
X159609Y128226D01*
X159576Y128278D01*
X159534Y128321D01*
X159496Y128363D01*
X159458Y128396D01*
X159420Y128420D01*
X159392Y128443D01*
X159373Y128453D01*
X159368Y128458D01*
X159307Y128486D01*
X159245Y128510D01*
X159188Y128524D01*
X159132Y128538D01*
X159084Y128543D01*
X159046Y128548D01*
X158957D01*
X158900Y128538D01*
X158800Y128514D01*
X158715Y128481D01*
X158640Y128448D01*
X158583Y128410D01*
X158540Y128377D01*
X158517Y128354D01*
X158507Y128349D01*
Y128344D01*
X158441Y128264D01*
X158394Y128179D01*
X158361Y128089D01*
X158337Y127999D01*
X158323Y127923D01*
X158318Y127890D01*
Y127862D01*
X158313Y127838D01*
Y127819D01*
Y127810D01*
Y127805D01*
Y127739D01*
X158323Y127677D01*
X158346Y127559D01*
X158379Y127460D01*
X158413Y127379D01*
X158450Y127313D01*
X158484Y127261D01*
X158498Y127247D01*
X158507Y127233D01*
X158512Y127228D01*
X158517Y127223D01*
X158554Y127185D01*
X158592Y127152D01*
X158677Y127095D01*
X158758Y127058D01*
X158838Y127034D01*
X158904Y127015D01*
X158961Y127010D01*
X158980Y127006D01*
X159009D01*
X159098Y127010D01*
X159179Y127029D01*
X159250Y127053D01*
X159307Y127081D01*
X159359Y127110D01*
X159396Y127133D01*
X159415Y127152D01*
X159425Y127157D01*
X159482Y127223D01*
X159529Y127294D01*
X159567Y127374D01*
X159595Y127445D01*
X159614Y127516D01*
X159628Y127568D01*
X159633Y127592D01*
X159638Y127606D01*
Y127616D01*
Y127620D01*
X160058Y127587D01*
X160049Y127512D01*
X160035Y127441D01*
X159992Y127308D01*
X159940Y127195D01*
X159912Y127143D01*
X159883Y127100D01*
X159860Y127058D01*
X159832Y127020D01*
X159808Y126991D01*
X159784Y126968D01*
X159765Y126949D01*
X159756Y126930D01*
X159746Y126925D01*
X159742Y126920D01*
X159685Y126878D01*
X159628Y126840D01*
X159567Y126807D01*
X159505Y126778D01*
X159387Y126736D01*
X159269Y126707D01*
X159217Y126693D01*
X159165Y126689D01*
X159122Y126684D01*
X159084Y126679D01*
X159051Y126674D01*
X159009D01*
X158909Y126679D01*
X158815Y126693D01*
X158725Y126712D01*
X158644Y126736D01*
X158569Y126769D01*
X158498Y126802D01*
X158431Y126835D01*
X158375Y126873D01*
X158323Y126911D01*
X158275Y126944D01*
X158238Y126982D01*
X158204Y127010D01*
X158181Y127034D01*
X158162Y127053D01*
X158152Y127067D01*
X158148Y127072D01*
X158100Y127133D01*
X158063Y127199D01*
X158025Y127261D01*
X157996Y127327D01*
X157949Y127455D01*
X157921Y127578D01*
X157911Y127630D01*
X157902Y127682D01*
X157897Y127725D01*
X157892Y127762D01*
X157887Y127795D01*
Y127819D01*
Y127833D01*
Y127838D01*
X157892Y127923D01*
X157902Y128004D01*
X157916Y128084D01*
X157935Y128155D01*
X157958Y128221D01*
X157982Y128287D01*
X158010Y128344D01*
X158034Y128396D01*
X158063Y128443D01*
X158091Y128486D01*
X158115Y128519D01*
X158138Y128552D01*
X158157Y128576D01*
X158171Y128590D01*
X158181Y128600D01*
X158186Y128604D01*
X158242Y128656D01*
X158299Y128704D01*
X158361Y128741D01*
X158422Y128774D01*
X158484Y128808D01*
X158545Y128831D01*
X158659Y128864D01*
X158711Y128879D01*
X158758Y128888D01*
X158800Y128893D01*
X158838Y128898D01*
X158867Y128902D01*
X158971D01*
X159027Y128893D01*
X159141Y128869D01*
X159245Y128836D01*
X159340Y128798D01*
X159415Y128760D01*
X159448Y128741D01*
X159477Y128727D01*
X159500Y128713D01*
X159515Y128704D01*
X159524Y128699D01*
X159529Y128694D01*
X159354Y129579D01*
X158044D01*
Y129962D01*
X159671D01*
X159988Y128278D01*
D02*
G37*
G36*
X165735Y126731D02*
X165299D01*
Y128183D01*
X164741D01*
X164689Y128179D01*
X164651D01*
X164618Y128174D01*
X164595Y128169D01*
X164576D01*
X164566Y128164D01*
X164561D01*
X164486Y128141D01*
X164453Y128127D01*
X164424Y128112D01*
X164396Y128098D01*
X164377Y128089D01*
X164368Y128084D01*
X164363Y128079D01*
X164325Y128051D01*
X164287Y128018D01*
X164216Y127947D01*
X164183Y127914D01*
X164160Y127885D01*
X164145Y127866D01*
X164140Y127862D01*
X164093Y127795D01*
X164041Y127725D01*
X163989Y127649D01*
X163937Y127578D01*
X163895Y127512D01*
X163862Y127460D01*
X163847Y127441D01*
X163838Y127427D01*
X163828Y127417D01*
Y127412D01*
X163398Y126731D01*
X162859D01*
X163422Y127620D01*
X163488Y127715D01*
X163549Y127800D01*
X163611Y127871D01*
X163663Y127937D01*
X163710Y127985D01*
X163748Y128023D01*
X163772Y128046D01*
X163781Y128056D01*
X163819Y128084D01*
X163862Y128117D01*
X163947Y128169D01*
X163984Y128188D01*
X164013Y128207D01*
X164032Y128216D01*
X164041Y128221D01*
X163956Y128235D01*
X163876Y128250D01*
X163805Y128273D01*
X163734Y128292D01*
X163672Y128316D01*
X163616Y128344D01*
X163564Y128368D01*
X163516Y128391D01*
X163478Y128420D01*
X163441Y128443D01*
X163412Y128462D01*
X163389Y128481D01*
X163370Y128496D01*
X163355Y128510D01*
X163351Y128514D01*
X163346Y128519D01*
X163308Y128566D01*
X163270Y128614D01*
X163214Y128713D01*
X163176Y128812D01*
X163147Y128907D01*
X163128Y128987D01*
X163124Y129021D01*
Y129054D01*
X163119Y129077D01*
Y129096D01*
Y129106D01*
Y129110D01*
X163124Y129210D01*
X163138Y129300D01*
X163161Y129385D01*
X163185Y129456D01*
X163214Y129517D01*
X163232Y129564D01*
X163251Y129593D01*
X163256Y129598D01*
Y129602D01*
X163313Y129678D01*
X163370Y129744D01*
X163431Y129801D01*
X163488Y129843D01*
X163540Y129877D01*
X163582Y129895D01*
X163611Y129910D01*
X163616Y129914D01*
X163620D01*
X163663Y129929D01*
X163715Y129943D01*
X163819Y129966D01*
X163932Y129981D01*
X164037Y129995D01*
X164136Y130000D01*
X164178D01*
X164216Y130004D01*
X165735D01*
Y126731D01*
D02*
G37*
G36*
X161586Y124867D02*
X161667Y124863D01*
X161742Y124848D01*
X161813Y124834D01*
X161880Y124815D01*
X161941Y124796D01*
X161998Y124773D01*
X162050Y124749D01*
X162097Y124725D01*
X162135Y124702D01*
X162168Y124683D01*
X162197Y124664D01*
X162220Y124650D01*
X162234Y124636D01*
X162244Y124631D01*
X162249Y124626D01*
X162296Y124579D01*
X162338Y124527D01*
X162381Y124470D01*
X162414Y124413D01*
X162471Y124300D01*
X162509Y124186D01*
X162523Y124134D01*
X162537Y124082D01*
X162547Y124040D01*
X162556Y124002D01*
X162561Y123969D01*
Y123945D01*
X162566Y123931D01*
Y123926D01*
X162154Y123883D01*
X162144Y123992D01*
X162126Y124087D01*
X162097Y124172D01*
X162064Y124238D01*
X162036Y124295D01*
X162007Y124333D01*
X161988Y124356D01*
X161979Y124366D01*
X161908Y124423D01*
X161832Y124465D01*
X161752Y124498D01*
X161681Y124517D01*
X161615Y124531D01*
X161558Y124536D01*
X161539Y124541D01*
X161511D01*
X161411Y124536D01*
X161321Y124517D01*
X161246Y124489D01*
X161180Y124460D01*
X161127Y124427D01*
X161094Y124404D01*
X161071Y124385D01*
X161061Y124375D01*
X161004Y124309D01*
X160962Y124243D01*
X160929Y124177D01*
X160910Y124110D01*
X160896Y124058D01*
X160891Y124011D01*
X160886Y123983D01*
Y123978D01*
Y123973D01*
X160896Y123888D01*
X160915Y123798D01*
X160948Y123718D01*
X160981Y123642D01*
X161019Y123581D01*
X161052Y123529D01*
X161061Y123510D01*
X161071Y123496D01*
X161080Y123491D01*
Y123486D01*
X161118Y123434D01*
X161165Y123382D01*
X161217Y123325D01*
X161274Y123269D01*
X161392Y123155D01*
X161511Y123041D01*
X161572Y122989D01*
X161624Y122942D01*
X161676Y122900D01*
X161719Y122862D01*
X161752Y122833D01*
X161780Y122810D01*
X161799Y122796D01*
X161804Y122791D01*
X161922Y122692D01*
X162031Y122597D01*
X162121Y122512D01*
X162192Y122441D01*
X162253Y122379D01*
X162296Y122337D01*
X162320Y122308D01*
X162329Y122304D01*
Y122299D01*
X162395Y122219D01*
X162447Y122143D01*
X162495Y122067D01*
X162532Y122001D01*
X162561Y121944D01*
X162580Y121902D01*
X162589Y121873D01*
X162594Y121869D01*
Y121864D01*
X162613Y121812D01*
X162622Y121764D01*
X162632Y121717D01*
X162636Y121675D01*
X162641Y121637D01*
Y121608D01*
Y121589D01*
Y121585D01*
X160470D01*
Y121973D01*
X162083D01*
X162026Y122053D01*
X161998Y122086D01*
X161974Y122119D01*
X161951Y122148D01*
X161932Y122167D01*
X161917Y122181D01*
X161913Y122185D01*
X161889Y122209D01*
X161861Y122233D01*
X161794Y122294D01*
X161719Y122365D01*
X161638Y122436D01*
X161563Y122498D01*
X161530Y122526D01*
X161501Y122554D01*
X161477Y122573D01*
X161459Y122587D01*
X161449Y122597D01*
X161444Y122602D01*
X161369Y122668D01*
X161293Y122729D01*
X161227Y122791D01*
X161165Y122843D01*
X161109Y122895D01*
X161061Y122942D01*
X161014Y122985D01*
X160976Y123023D01*
X160938Y123060D01*
X160910Y123089D01*
X160886Y123112D01*
X160863Y123136D01*
X160839Y123164D01*
X160829Y123174D01*
X160763Y123254D01*
X160707Y123325D01*
X160659Y123396D01*
X160621Y123453D01*
X160593Y123505D01*
X160574Y123543D01*
X160565Y123567D01*
X160560Y123576D01*
X160531Y123647D01*
X160513Y123718D01*
X160494Y123784D01*
X160484Y123841D01*
X160479Y123893D01*
X160475Y123931D01*
Y123954D01*
Y123964D01*
X160479Y124035D01*
X160489Y124101D01*
X160498Y124167D01*
X160517Y124224D01*
X160565Y124337D01*
X160612Y124427D01*
X160640Y124470D01*
X160664Y124503D01*
X160688Y124536D01*
X160711Y124560D01*
X160730Y124579D01*
X160740Y124598D01*
X160749Y124602D01*
X160754Y124607D01*
X160806Y124654D01*
X160863Y124697D01*
X160924Y124730D01*
X160986Y124759D01*
X161109Y124806D01*
X161232Y124839D01*
X161284Y124848D01*
X161336Y124858D01*
X161383Y124863D01*
X161421Y124867D01*
X161454Y124872D01*
X161501D01*
X161586Y124867D01*
D02*
G37*
G36*
X165716Y121585D02*
X165280D01*
Y123037D01*
X164722D01*
X164670Y123032D01*
X164632D01*
X164599Y123027D01*
X164576Y123023D01*
X164557D01*
X164547Y123018D01*
X164543D01*
X164467Y122994D01*
X164434Y122980D01*
X164405Y122966D01*
X164377Y122952D01*
X164358Y122942D01*
X164349Y122938D01*
X164344Y122933D01*
X164306Y122904D01*
X164268Y122871D01*
X164197Y122800D01*
X164164Y122767D01*
X164140Y122739D01*
X164126Y122720D01*
X164122Y122715D01*
X164074Y122649D01*
X164022Y122578D01*
X163970Y122502D01*
X163918Y122431D01*
X163876Y122365D01*
X163843Y122313D01*
X163828Y122294D01*
X163819Y122280D01*
X163809Y122271D01*
Y122266D01*
X163379Y121585D01*
X162840D01*
X163403Y122474D01*
X163469Y122569D01*
X163530Y122654D01*
X163592Y122725D01*
X163644Y122791D01*
X163691Y122838D01*
X163729Y122876D01*
X163753Y122900D01*
X163762Y122909D01*
X163800Y122938D01*
X163843Y122971D01*
X163928Y123023D01*
X163965Y123041D01*
X163994Y123060D01*
X164013Y123070D01*
X164022Y123075D01*
X163937Y123089D01*
X163857Y123103D01*
X163786Y123127D01*
X163715Y123146D01*
X163653Y123169D01*
X163597Y123198D01*
X163545Y123221D01*
X163497Y123245D01*
X163459Y123273D01*
X163422Y123297D01*
X163393Y123316D01*
X163370Y123335D01*
X163351Y123349D01*
X163336Y123363D01*
X163332Y123368D01*
X163327Y123373D01*
X163289Y123420D01*
X163251Y123467D01*
X163195Y123567D01*
X163157Y123666D01*
X163128Y123760D01*
X163109Y123841D01*
X163105Y123874D01*
Y123907D01*
X163100Y123931D01*
Y123950D01*
Y123959D01*
Y123964D01*
X163105Y124063D01*
X163119Y124153D01*
X163143Y124238D01*
X163166Y124309D01*
X163195Y124371D01*
X163214Y124418D01*
X163232Y124446D01*
X163237Y124451D01*
Y124456D01*
X163294Y124531D01*
X163351Y124598D01*
X163412Y124654D01*
X163469Y124697D01*
X163521Y124730D01*
X163564Y124749D01*
X163592Y124763D01*
X163597Y124768D01*
X163601D01*
X163644Y124782D01*
X163696Y124796D01*
X163800Y124820D01*
X163914Y124834D01*
X164018Y124848D01*
X164117Y124853D01*
X164160D01*
X164197Y124858D01*
X165716D01*
Y121585D01*
D02*
G37*
G36*
X160177Y122739D02*
Y122370D01*
X158753D01*
Y121585D01*
X158351D01*
Y122370D01*
X157906D01*
Y122739D01*
X158351D01*
Y124858D01*
X158677D01*
X160177Y122739D01*
D02*
G37*
G36*
X285461Y125994D02*
X285083Y125942D01*
X285050Y125994D01*
X285007Y126036D01*
X284969Y126079D01*
X284931Y126112D01*
X284894Y126136D01*
X284865Y126159D01*
X284846Y126169D01*
X284842Y126173D01*
X284780Y126202D01*
X284719Y126225D01*
X284662Y126240D01*
X284605Y126254D01*
X284558Y126259D01*
X284520Y126263D01*
X284430D01*
X284373Y126254D01*
X284274Y126230D01*
X284189Y126197D01*
X284113Y126164D01*
X284056Y126126D01*
X284014Y126093D01*
X283990Y126069D01*
X283981Y126065D01*
Y126060D01*
X283915Y125979D01*
X283867Y125894D01*
X283834Y125804D01*
X283810Y125715D01*
X283796Y125639D01*
X283792Y125606D01*
Y125577D01*
X283787Y125554D01*
Y125535D01*
Y125525D01*
Y125521D01*
Y125454D01*
X283796Y125393D01*
X283820Y125275D01*
X283853Y125175D01*
X283886Y125095D01*
X283924Y125029D01*
X283957Y124977D01*
X283971Y124963D01*
X283981Y124948D01*
X283985Y124944D01*
X283990Y124939D01*
X284028Y124901D01*
X284066Y124868D01*
X284151Y124811D01*
X284231Y124773D01*
X284312Y124750D01*
X284378Y124731D01*
X284435Y124726D01*
X284454Y124721D01*
X284482D01*
X284572Y124726D01*
X284652Y124745D01*
X284723Y124769D01*
X284780Y124797D01*
X284832Y124825D01*
X284870Y124849D01*
X284889Y124868D01*
X284898Y124873D01*
X284955Y124939D01*
X285002Y125010D01*
X285040Y125090D01*
X285069Y125161D01*
X285088Y125232D01*
X285102Y125284D01*
X285107Y125308D01*
X285111Y125322D01*
Y125331D01*
Y125336D01*
X285532Y125303D01*
X285523Y125227D01*
X285509Y125156D01*
X285466Y125024D01*
X285414Y124910D01*
X285386Y124858D01*
X285357Y124816D01*
X285334Y124773D01*
X285305Y124735D01*
X285282Y124707D01*
X285258Y124683D01*
X285239Y124665D01*
X285229Y124646D01*
X285220Y124641D01*
X285215Y124636D01*
X285159Y124594D01*
X285102Y124556D01*
X285040Y124523D01*
X284979Y124494D01*
X284861Y124452D01*
X284742Y124423D01*
X284690Y124409D01*
X284638Y124404D01*
X284596Y124400D01*
X284558Y124395D01*
X284525Y124390D01*
X284482D01*
X284383Y124395D01*
X284288Y124409D01*
X284198Y124428D01*
X284118Y124452D01*
X284042Y124485D01*
X283971Y124518D01*
X283905Y124551D01*
X283848Y124589D01*
X283796Y124627D01*
X283749Y124660D01*
X283711Y124698D01*
X283678Y124726D01*
X283654Y124750D01*
X283635Y124769D01*
X283626Y124783D01*
X283621Y124788D01*
X283574Y124849D01*
X283536Y124915D01*
X283498Y124977D01*
X283470Y125043D01*
X283423Y125171D01*
X283394Y125294D01*
X283385Y125346D01*
X283375Y125398D01*
X283371Y125440D01*
X283366Y125478D01*
X283361Y125511D01*
Y125535D01*
Y125549D01*
Y125554D01*
X283366Y125639D01*
X283375Y125719D01*
X283390Y125800D01*
X283408Y125871D01*
X283432Y125937D01*
X283456Y126003D01*
X283484Y126060D01*
X283508Y126112D01*
X283536Y126159D01*
X283565Y126202D01*
X283588Y126235D01*
X283612Y126268D01*
X283631Y126292D01*
X283645Y126306D01*
X283654Y126315D01*
X283659Y126320D01*
X283716Y126372D01*
X283773Y126419D01*
X283834Y126457D01*
X283896Y126490D01*
X283957Y126523D01*
X284019Y126547D01*
X284132Y126580D01*
X284184Y126594D01*
X284231Y126604D01*
X284274Y126609D01*
X284312Y126613D01*
X284340Y126618D01*
X284444D01*
X284501Y126609D01*
X284615Y126585D01*
X284719Y126552D01*
X284813Y126514D01*
X284889Y126476D01*
X284922Y126457D01*
X284950Y126443D01*
X284974Y126429D01*
X284988Y126419D01*
X284998Y126415D01*
X285002Y126410D01*
X284827Y127295D01*
X283517D01*
Y127678D01*
X285144D01*
X285461Y125994D01*
D02*
G37*
G36*
X287680Y127768D02*
X287831Y127744D01*
X287968Y127711D01*
X288030Y127692D01*
X288091Y127673D01*
X288143Y127654D01*
X288191Y127635D01*
X288228Y127616D01*
X288262Y127602D01*
X288290Y127588D01*
X288309Y127578D01*
X288323Y127574D01*
X288328Y127569D01*
X288455Y127484D01*
X288564Y127384D01*
X288664Y127285D01*
X288739Y127190D01*
X288805Y127101D01*
X288829Y127063D01*
X288848Y127030D01*
X288867Y127001D01*
X288876Y126982D01*
X288881Y126968D01*
X288886Y126963D01*
X288952Y126812D01*
X288999Y126656D01*
X289033Y126509D01*
X289056Y126372D01*
X289066Y126311D01*
X289070Y126254D01*
X289075Y126202D01*
Y126159D01*
X289080Y126126D01*
Y126102D01*
Y126084D01*
Y126079D01*
X289070Y125904D01*
X289051Y125738D01*
X289033Y125658D01*
X289018Y125587D01*
X288999Y125521D01*
X288980Y125459D01*
X288966Y125402D01*
X288947Y125350D01*
X288928Y125308D01*
X288914Y125270D01*
X288905Y125242D01*
X288895Y125223D01*
X288886Y125208D01*
Y125204D01*
X288805Y125067D01*
X288716Y124948D01*
X288626Y124844D01*
X288536Y124759D01*
X288455Y124693D01*
X288422Y124665D01*
X288389Y124641D01*
X288366Y124627D01*
X288347Y124613D01*
X288337Y124608D01*
X288332Y124603D01*
X288262Y124565D01*
X288195Y124532D01*
X288053Y124480D01*
X287916Y124442D01*
X287793Y124419D01*
X287736Y124409D01*
X287684Y124400D01*
X287637Y124395D01*
X287599D01*
X287566Y124390D01*
X287524D01*
X287443Y124395D01*
X287363Y124400D01*
X287211Y124423D01*
X287074Y124457D01*
X287013Y124475D01*
X286956Y124494D01*
X286904Y124513D01*
X286857Y124527D01*
X286819Y124546D01*
X286781Y124560D01*
X286757Y124575D01*
X286734Y124584D01*
X286724Y124594D01*
X286719D01*
X286587Y124499D01*
X286459Y124414D01*
X286341Y124348D01*
X286237Y124291D01*
X286190Y124267D01*
X286147Y124248D01*
X286109Y124229D01*
X286076Y124215D01*
X286048Y124206D01*
X286029Y124196D01*
X286019Y124192D01*
X286015D01*
X285887Y124490D01*
X285982Y124532D01*
X286081Y124575D01*
X286175Y124627D01*
X286261Y124679D01*
X286332Y124721D01*
X286365Y124740D01*
X286388Y124759D01*
X286412Y124773D01*
X286426Y124783D01*
X286436Y124792D01*
X286440D01*
X286355Y124887D01*
X286280Y124981D01*
X286213Y125076D01*
X286161Y125166D01*
X286123Y125242D01*
X286109Y125275D01*
X286095Y125303D01*
X286086Y125322D01*
X286076Y125341D01*
X286071Y125350D01*
Y125355D01*
X286029Y125478D01*
X286000Y125606D01*
X285977Y125729D01*
X285963Y125842D01*
X285958Y125890D01*
X285953Y125937D01*
Y125979D01*
X285948Y126017D01*
Y126046D01*
Y126065D01*
Y126079D01*
Y126084D01*
X285958Y126259D01*
X285977Y126424D01*
X285991Y126500D01*
X286010Y126571D01*
X286029Y126637D01*
X286043Y126699D01*
X286062Y126755D01*
X286081Y126807D01*
X286095Y126850D01*
X286114Y126888D01*
X286123Y126916D01*
X286133Y126935D01*
X286142Y126949D01*
Y126954D01*
X286218Y127091D01*
X286308Y127214D01*
X286403Y127318D01*
X286488Y127403D01*
X286568Y127470D01*
X286606Y127498D01*
X286634Y127522D01*
X286663Y127536D01*
X286682Y127550D01*
X286691Y127555D01*
X286696Y127559D01*
X286767Y127597D01*
X286838Y127630D01*
X286975Y127687D01*
X287117Y127725D01*
X287240Y127749D01*
X287297Y127758D01*
X287353Y127768D01*
X287396Y127772D01*
X287438D01*
X287472Y127777D01*
X287599D01*
X287680Y127768D01*
D02*
G37*
G36*
X165178Y174814D02*
Y174445D01*
X163754D01*
Y173660D01*
X163352D01*
Y174445D01*
X162908D01*
Y174814D01*
X163352D01*
Y176933D01*
X163679D01*
X165178Y174814D01*
D02*
G37*
G36*
X167188Y176980D02*
X167340Y176956D01*
X167477Y176923D01*
X167538Y176904D01*
X167600Y176885D01*
X167652Y176866D01*
X167699Y176848D01*
X167737Y176829D01*
X167770Y176814D01*
X167798Y176800D01*
X167817Y176791D01*
X167832Y176786D01*
X167836Y176781D01*
X167964Y176696D01*
X168073Y176597D01*
X168172Y176498D01*
X168248Y176403D01*
X168314Y176313D01*
X168338Y176275D01*
X168357Y176242D01*
X168376Y176214D01*
X168385Y176195D01*
X168390Y176181D01*
X168394Y176176D01*
X168461Y176025D01*
X168508Y175868D01*
X168541Y175722D01*
X168565Y175585D01*
X168574Y175523D01*
X168579Y175467D01*
X168584Y175414D01*
Y175372D01*
X168588Y175339D01*
Y175315D01*
Y175296D01*
Y175292D01*
X168579Y175116D01*
X168560Y174951D01*
X168541Y174871D01*
X168527Y174800D01*
X168508Y174733D01*
X168489Y174672D01*
X168475Y174615D01*
X168456Y174563D01*
X168437Y174521D01*
X168423Y174483D01*
X168413Y174454D01*
X168404Y174435D01*
X168394Y174421D01*
Y174416D01*
X168314Y174279D01*
X168224Y174161D01*
X168134Y174057D01*
X168044Y173972D01*
X167964Y173906D01*
X167931Y173877D01*
X167898Y173854D01*
X167874Y173839D01*
X167855Y173825D01*
X167846Y173820D01*
X167841Y173816D01*
X167770Y173778D01*
X167704Y173745D01*
X167562Y173693D01*
X167425Y173655D01*
X167302Y173631D01*
X167245Y173622D01*
X167193Y173612D01*
X167146Y173608D01*
X167108D01*
X167075Y173603D01*
X167032D01*
X166952Y173608D01*
X166871Y173612D01*
X166720Y173636D01*
X166583Y173669D01*
X166521Y173688D01*
X166465Y173707D01*
X166413Y173726D01*
X166365Y173740D01*
X166327Y173759D01*
X166290Y173773D01*
X166266Y173787D01*
X166242Y173797D01*
X166233Y173806D01*
X166228D01*
X166096Y173712D01*
X165968Y173626D01*
X165850Y173560D01*
X165746Y173503D01*
X165698Y173480D01*
X165656Y173461D01*
X165618Y173442D01*
X165585Y173428D01*
X165557Y173418D01*
X165538Y173409D01*
X165528Y173404D01*
X165523D01*
X165396Y173702D01*
X165490Y173745D01*
X165590Y173787D01*
X165684Y173839D01*
X165769Y173891D01*
X165840Y173934D01*
X165873Y173953D01*
X165897Y173972D01*
X165921Y173986D01*
X165935Y173995D01*
X165944Y174005D01*
X165949D01*
X165864Y174100D01*
X165788Y174194D01*
X165722Y174289D01*
X165670Y174379D01*
X165632Y174454D01*
X165618Y174487D01*
X165604Y174516D01*
X165594Y174535D01*
X165585Y174554D01*
X165580Y174563D01*
Y174568D01*
X165538Y174691D01*
X165509Y174819D01*
X165486Y174941D01*
X165471Y175055D01*
X165467Y175102D01*
X165462Y175150D01*
Y175192D01*
X165457Y175230D01*
Y175258D01*
Y175277D01*
Y175292D01*
Y175296D01*
X165467Y175471D01*
X165486Y175637D01*
X165500Y175712D01*
X165519Y175783D01*
X165538Y175850D01*
X165552Y175911D01*
X165571Y175968D01*
X165590Y176020D01*
X165604Y176062D01*
X165623Y176100D01*
X165632Y176129D01*
X165642Y176148D01*
X165651Y176162D01*
Y176166D01*
X165727Y176304D01*
X165817Y176427D01*
X165911Y176531D01*
X165996Y176616D01*
X166077Y176682D01*
X166115Y176710D01*
X166143Y176734D01*
X166171Y176748D01*
X166190Y176762D01*
X166200Y176767D01*
X166205Y176772D01*
X166275Y176810D01*
X166346Y176843D01*
X166483Y176900D01*
X166625Y176937D01*
X166748Y176961D01*
X166805Y176971D01*
X166862Y176980D01*
X166904Y176985D01*
X166947D01*
X166980Y176989D01*
X167108D01*
X167188Y176980D01*
D02*
G37*
G36*
X205186Y94187D02*
X205267Y94182D01*
X205343Y94168D01*
X205413Y94154D01*
X205480Y94135D01*
X205541Y94116D01*
X205598Y94092D01*
X205650Y94069D01*
X205697Y94045D01*
X205735Y94021D01*
X205768Y94002D01*
X205797Y93984D01*
X205820Y93969D01*
X205834Y93955D01*
X205844Y93950D01*
X205849Y93946D01*
X205896Y93898D01*
X205939Y93846D01*
X205981Y93790D01*
X206014Y93733D01*
X206071Y93619D01*
X206109Y93506D01*
X206123Y93454D01*
X206137Y93402D01*
X206147Y93359D01*
X206156Y93321D01*
X206161Y93288D01*
Y93265D01*
X206166Y93251D01*
Y93246D01*
X205754Y93203D01*
X205745Y93312D01*
X205726Y93407D01*
X205697Y93492D01*
X205664Y93558D01*
X205636Y93615D01*
X205607Y93652D01*
X205589Y93676D01*
X205579Y93686D01*
X205508Y93742D01*
X205432Y93785D01*
X205352Y93818D01*
X205281Y93837D01*
X205215Y93851D01*
X205158Y93856D01*
X205139Y93861D01*
X205111D01*
X205011Y93856D01*
X204922Y93837D01*
X204846Y93809D01*
X204780Y93780D01*
X204728Y93747D01*
X204695Y93723D01*
X204671Y93704D01*
X204661Y93695D01*
X204605Y93629D01*
X204562Y93563D01*
X204529Y93496D01*
X204510Y93430D01*
X204496Y93378D01*
X204491Y93331D01*
X204486Y93303D01*
Y93298D01*
Y93293D01*
X204496Y93208D01*
X204515Y93118D01*
X204548Y93038D01*
X204581Y92962D01*
X204619Y92901D01*
X204652Y92848D01*
X204661Y92830D01*
X204671Y92815D01*
X204680Y92811D01*
Y92806D01*
X204718Y92754D01*
X204765Y92702D01*
X204818Y92645D01*
X204874Y92588D01*
X204993Y92475D01*
X205111Y92361D01*
X205172Y92309D01*
X205224Y92262D01*
X205276Y92219D01*
X205319Y92181D01*
X205352Y92153D01*
X205380Y92129D01*
X205399Y92115D01*
X205404Y92111D01*
X205522Y92011D01*
X205631Y91917D01*
X205721Y91831D01*
X205792Y91760D01*
X205853Y91699D01*
X205896Y91657D01*
X205920Y91628D01*
X205929Y91623D01*
Y91619D01*
X205995Y91538D01*
X206047Y91462D01*
X206095Y91387D01*
X206132Y91321D01*
X206161Y91264D01*
X206180Y91221D01*
X206189Y91193D01*
X206194Y91188D01*
Y91184D01*
X206213Y91131D01*
X206222Y91084D01*
X206232Y91037D01*
X206237Y90994D01*
X206241Y90956D01*
Y90928D01*
Y90909D01*
Y90904D01*
X204070D01*
Y91292D01*
X205683D01*
X205626Y91373D01*
X205598Y91406D01*
X205574Y91439D01*
X205551Y91467D01*
X205532Y91486D01*
X205518Y91500D01*
X205513Y91505D01*
X205489Y91529D01*
X205461Y91552D01*
X205395Y91614D01*
X205319Y91685D01*
X205238Y91756D01*
X205163Y91817D01*
X205130Y91846D01*
X205101Y91874D01*
X205078Y91893D01*
X205059Y91907D01*
X205049Y91917D01*
X205045Y91921D01*
X204969Y91988D01*
X204893Y92049D01*
X204827Y92111D01*
X204765Y92163D01*
X204709Y92215D01*
X204661Y92262D01*
X204614Y92304D01*
X204576Y92342D01*
X204538Y92380D01*
X204510Y92409D01*
X204486Y92432D01*
X204463Y92456D01*
X204439Y92484D01*
X204430Y92494D01*
X204363Y92574D01*
X204307Y92645D01*
X204259Y92716D01*
X204222Y92773D01*
X204193Y92825D01*
X204174Y92863D01*
X204165Y92886D01*
X204160Y92896D01*
X204132Y92967D01*
X204113Y93038D01*
X204094Y93104D01*
X204084Y93161D01*
X204080Y93213D01*
X204075Y93251D01*
Y93274D01*
Y93284D01*
X204080Y93354D01*
X204089Y93421D01*
X204099Y93487D01*
X204117Y93544D01*
X204165Y93657D01*
X204212Y93747D01*
X204240Y93790D01*
X204264Y93823D01*
X204288Y93856D01*
X204311Y93880D01*
X204330Y93898D01*
X204340Y93917D01*
X204349Y93922D01*
X204354Y93927D01*
X204406Y93974D01*
X204463Y94017D01*
X204524Y94050D01*
X204586Y94078D01*
X204709Y94125D01*
X204832Y94159D01*
X204884Y94168D01*
X204936Y94178D01*
X204983Y94182D01*
X205021Y94187D01*
X205054Y94192D01*
X205101D01*
X205186Y94187D01*
D02*
G37*
G36*
X209316Y92286D02*
Y92191D01*
X209311Y92101D01*
X209306Y92016D01*
X209297Y91935D01*
X209287Y91865D01*
X209278Y91798D01*
X209264Y91737D01*
X209254Y91680D01*
X209245Y91628D01*
X209230Y91585D01*
X209221Y91548D01*
X209212Y91519D01*
X209202Y91496D01*
X209197Y91477D01*
X209193Y91467D01*
Y91462D01*
X209141Y91359D01*
X209074Y91264D01*
X209008Y91188D01*
X208937Y91122D01*
X208876Y91070D01*
X208824Y91032D01*
X208805Y91023D01*
X208791Y91013D01*
X208781Y91004D01*
X208776D01*
X208658Y90952D01*
X208535Y90914D01*
X208407Y90886D01*
X208289Y90867D01*
X208237Y90862D01*
X208185Y90857D01*
X208138Y90852D01*
X208100D01*
X208067Y90848D01*
X208024D01*
X207854Y90857D01*
X207778Y90867D01*
X207708Y90876D01*
X207636Y90890D01*
X207575Y90904D01*
X207518Y90919D01*
X207466Y90938D01*
X207419Y90956D01*
X207381Y90971D01*
X207343Y90985D01*
X207315Y90999D01*
X207291Y91013D01*
X207277Y91018D01*
X207268Y91027D01*
X207263D01*
X207159Y91098D01*
X207074Y91179D01*
X207008Y91254D01*
X206951Y91330D01*
X206908Y91396D01*
X206880Y91448D01*
X206870Y91467D01*
X206861Y91481D01*
X206856Y91491D01*
Y91496D01*
X206837Y91552D01*
X206818Y91614D01*
X206790Y91742D01*
X206771Y91874D01*
X206757Y92002D01*
X206752Y92058D01*
X206747Y92115D01*
Y92163D01*
X206743Y92205D01*
Y92238D01*
Y92262D01*
Y92281D01*
Y92286D01*
Y94178D01*
X207178D01*
Y92286D01*
Y92177D01*
X207187Y92073D01*
X207197Y91983D01*
X207211Y91898D01*
X207225Y91822D01*
X207244Y91751D01*
X207258Y91690D01*
X207277Y91637D01*
X207296Y91595D01*
X207315Y91552D01*
X207334Y91524D01*
X207348Y91496D01*
X207362Y91477D01*
X207372Y91462D01*
X207376Y91458D01*
X207381Y91453D01*
X207424Y91415D01*
X207471Y91382D01*
X207575Y91330D01*
X207684Y91292D01*
X207797Y91269D01*
X207901Y91250D01*
X207944Y91245D01*
X207987D01*
X208015Y91240D01*
X208062D01*
X208162Y91245D01*
X208251Y91259D01*
X208337Y91273D01*
X208403Y91297D01*
X208460Y91316D01*
X208502Y91330D01*
X208526Y91344D01*
X208535Y91349D01*
X208601Y91392D01*
X208658Y91444D01*
X208705Y91496D01*
X208739Y91543D01*
X208767Y91590D01*
X208791Y91623D01*
X208800Y91647D01*
X208805Y91657D01*
X208819Y91699D01*
X208828Y91742D01*
X208847Y91841D01*
X208862Y91945D01*
X208871Y92049D01*
X208876Y92139D01*
Y92181D01*
X208880Y92215D01*
Y92243D01*
Y92267D01*
Y92281D01*
Y92286D01*
Y94178D01*
X209316D01*
Y92286D01*
D02*
G37*
G36*
X180663Y64207D02*
X180715Y64131D01*
X180776Y64056D01*
X180833Y63989D01*
X180890Y63933D01*
X180932Y63885D01*
X180951Y63871D01*
X180965Y63857D01*
X180970Y63852D01*
X180975Y63848D01*
X181074Y63767D01*
X181173Y63691D01*
X181268Y63625D01*
X181363Y63573D01*
X181443Y63526D01*
X181476Y63507D01*
X181504Y63493D01*
X181528Y63478D01*
X181547Y63474D01*
X181557Y63464D01*
X181561D01*
Y63077D01*
X181490Y63105D01*
X181419Y63138D01*
X181348Y63171D01*
X181282Y63204D01*
X181226Y63233D01*
X181178Y63256D01*
X181150Y63275D01*
X181145Y63280D01*
X181140D01*
X181055Y63332D01*
X180980Y63384D01*
X180913Y63431D01*
X180861Y63474D01*
X180814Y63507D01*
X180786Y63535D01*
X180762Y63554D01*
X180757Y63559D01*
Y61000D01*
X180355D01*
Y64287D01*
X180615D01*
X180663Y64207D01*
D02*
G37*
G36*
X185000Y62381D02*
Y62287D01*
X184995Y62197D01*
X184991Y62112D01*
X184981Y62031D01*
X184972Y61960D01*
X184962Y61894D01*
X184948Y61832D01*
X184939Y61776D01*
X184929Y61724D01*
X184915Y61681D01*
X184905Y61643D01*
X184896Y61615D01*
X184887Y61591D01*
X184882Y61572D01*
X184877Y61563D01*
Y61558D01*
X184825Y61454D01*
X184759Y61360D01*
X184693Y61284D01*
X184622Y61218D01*
X184560Y61165D01*
X184508Y61128D01*
X184489Y61118D01*
X184475Y61109D01*
X184466Y61099D01*
X184461D01*
X184343Y61047D01*
X184220Y61010D01*
X184092Y60981D01*
X183974Y60962D01*
X183922Y60957D01*
X183870Y60953D01*
X183822Y60948D01*
X183784D01*
X183751Y60943D01*
X183709D01*
X183538Y60953D01*
X183463Y60962D01*
X183392Y60972D01*
X183321Y60986D01*
X183259Y61000D01*
X183203Y61014D01*
X183151Y61033D01*
X183103Y61052D01*
X183065Y61066D01*
X183028Y61080D01*
X182999Y61095D01*
X182976Y61109D01*
X182961Y61114D01*
X182952Y61123D01*
X182947D01*
X182843Y61194D01*
X182758Y61274D01*
X182692Y61350D01*
X182635Y61426D01*
X182592Y61492D01*
X182564Y61544D01*
X182555Y61563D01*
X182545Y61577D01*
X182540Y61586D01*
Y61591D01*
X182521Y61648D01*
X182503Y61709D01*
X182474Y61837D01*
X182455Y61970D01*
X182441Y62097D01*
X182436Y62154D01*
X182432Y62211D01*
Y62258D01*
X182427Y62301D01*
Y62334D01*
Y62357D01*
Y62376D01*
Y62381D01*
Y64273D01*
X182862D01*
Y62381D01*
Y62272D01*
X182871Y62168D01*
X182881Y62078D01*
X182895Y61993D01*
X182909Y61918D01*
X182928Y61847D01*
X182942Y61785D01*
X182961Y61733D01*
X182980Y61691D01*
X182999Y61648D01*
X183018Y61620D01*
X183032Y61591D01*
X183046Y61572D01*
X183056Y61558D01*
X183061Y61553D01*
X183065Y61549D01*
X183108Y61511D01*
X183155Y61478D01*
X183259Y61426D01*
X183368Y61388D01*
X183482Y61364D01*
X183586Y61345D01*
X183628Y61341D01*
X183671D01*
X183699Y61336D01*
X183747D01*
X183846Y61341D01*
X183936Y61355D01*
X184021Y61369D01*
X184087Y61393D01*
X184144Y61411D01*
X184186Y61426D01*
X184210Y61440D01*
X184220Y61445D01*
X184286Y61487D01*
X184343Y61539D01*
X184390Y61591D01*
X184423Y61638D01*
X184451Y61686D01*
X184475Y61719D01*
X184484Y61743D01*
X184489Y61752D01*
X184503Y61795D01*
X184513Y61837D01*
X184532Y61936D01*
X184546Y62041D01*
X184555Y62145D01*
X184560Y62234D01*
Y62277D01*
X184565Y62310D01*
Y62339D01*
Y62362D01*
Y62376D01*
Y62381D01*
Y64273D01*
X185000D01*
Y62381D01*
D02*
G37*
G36*
X57838Y157307D02*
X57890Y157231D01*
X57952Y157156D01*
X58009Y157089D01*
X58065Y157033D01*
X58108Y156985D01*
X58127Y156971D01*
X58141Y156957D01*
X58146Y156952D01*
X58151Y156948D01*
X58250Y156867D01*
X58349Y156791D01*
X58444Y156725D01*
X58538Y156673D01*
X58619Y156626D01*
X58652Y156607D01*
X58680Y156593D01*
X58704Y156579D01*
X58723Y156574D01*
X58732Y156564D01*
X58737D01*
Y156176D01*
X58666Y156205D01*
X58595Y156238D01*
X58524Y156271D01*
X58458Y156304D01*
X58401Y156333D01*
X58354Y156356D01*
X58325Y156375D01*
X58321Y156380D01*
X58316D01*
X58231Y156432D01*
X58155Y156484D01*
X58089Y156531D01*
X58037Y156574D01*
X57990Y156607D01*
X57961Y156635D01*
X57938Y156654D01*
X57933Y156659D01*
Y154100D01*
X57531D01*
Y157387D01*
X57791D01*
X57838Y157307D01*
D02*
G37*
G36*
X60024Y155117D02*
Y155018D01*
X60033Y154932D01*
X60038Y154861D01*
X60047Y154805D01*
X60057Y154762D01*
X60061Y154729D01*
X60071Y154710D01*
Y154705D01*
X60090Y154658D01*
X60113Y154620D01*
X60142Y154587D01*
X60166Y154554D01*
X60194Y154535D01*
X60213Y154516D01*
X60227Y154507D01*
X60232Y154502D01*
X60279Y154478D01*
X60326Y154460D01*
X60374Y154450D01*
X60416Y154441D01*
X60459Y154436D01*
X60487Y154431D01*
X60515D01*
X60591Y154436D01*
X60662Y154455D01*
X60719Y154474D01*
X60771Y154502D01*
X60809Y154526D01*
X60837Y154549D01*
X60856Y154563D01*
X60861Y154568D01*
X60884Y154597D01*
X60903Y154630D01*
X60932Y154705D01*
X60960Y154791D01*
X60974Y154876D01*
X60988Y154956D01*
Y154989D01*
X60993Y155018D01*
X60998Y155046D01*
Y155065D01*
Y155074D01*
Y155079D01*
X61391Y155022D01*
Y154932D01*
X61386Y154852D01*
X61372Y154772D01*
X61362Y154701D01*
X61343Y154634D01*
X61324Y154578D01*
X61305Y154521D01*
X61286Y154474D01*
X61263Y154431D01*
X61244Y154393D01*
X61225Y154360D01*
X61206Y154337D01*
X61192Y154318D01*
X61182Y154299D01*
X61178Y154294D01*
X61173Y154289D01*
X61126Y154247D01*
X61078Y154209D01*
X61026Y154176D01*
X60970Y154147D01*
X60861Y154105D01*
X60757Y154076D01*
X60657Y154057D01*
X60620Y154053D01*
X60582Y154048D01*
X60553Y154043D01*
X60511D01*
X60407Y154048D01*
X60312Y154062D01*
X60227Y154081D01*
X60151Y154105D01*
X60090Y154124D01*
X60047Y154143D01*
X60019Y154157D01*
X60009Y154162D01*
X59934Y154209D01*
X59868Y154266D01*
X59815Y154322D01*
X59768Y154374D01*
X59735Y154426D01*
X59711Y154464D01*
X59697Y154493D01*
X59693Y154497D01*
Y154502D01*
X59659Y154597D01*
X59631Y154696D01*
X59612Y154805D01*
X59603Y154909D01*
X59593Y154999D01*
Y155036D01*
X59588Y155074D01*
Y155103D01*
Y155122D01*
Y155136D01*
Y155141D01*
Y157373D01*
X60024D01*
Y155117D01*
D02*
G37*
%LPC*%
G36*
X280248Y128037D02*
X279217D01*
X279089Y128032D01*
X278981Y128013D01*
X278886Y127990D01*
X278815Y127961D01*
X278753Y127933D01*
X278716Y127909D01*
X278692Y127890D01*
X278683Y127886D01*
X278626Y127824D01*
X278583Y127763D01*
X278555Y127696D01*
X278531Y127640D01*
X278522Y127583D01*
X278517Y127540D01*
X278512Y127512D01*
Y127507D01*
Y127502D01*
X278517Y127446D01*
X278526Y127389D01*
X278541Y127342D01*
X278555Y127299D01*
X278574Y127261D01*
X278588Y127233D01*
X278597Y127214D01*
X278602Y127209D01*
X278635Y127162D01*
X278678Y127119D01*
X278720Y127086D01*
X278763Y127058D01*
X278801Y127039D01*
X278829Y127025D01*
X278848Y127015D01*
X278858Y127011D01*
X278924Y126992D01*
X278999Y126977D01*
X279075Y126968D01*
X279151Y126963D01*
X279217Y126959D01*
X279274Y126954D01*
X280248D01*
Y128037D01*
D02*
G37*
G36*
X262915Y126925D02*
X262886D01*
X262787Y126916D01*
X262697Y126892D01*
X262621Y126864D01*
X262555Y126826D01*
X262503Y126788D01*
X262465Y126760D01*
X262442Y126736D01*
X262432Y126727D01*
X262371Y126646D01*
X262323Y126561D01*
X262290Y126471D01*
X262271Y126386D01*
X262257Y126311D01*
X262253Y126277D01*
Y126249D01*
X262248Y126225D01*
Y126206D01*
Y126197D01*
Y126192D01*
X262257Y126065D01*
X262276Y125956D01*
X262305Y125861D01*
X262338Y125781D01*
X262375Y125719D01*
X262404Y125672D01*
X262423Y125644D01*
X262432Y125639D01*
Y125634D01*
X262465Y125596D01*
X262503Y125568D01*
X262579Y125516D01*
X262655Y125483D01*
X262721Y125454D01*
X262782Y125440D01*
X262830Y125435D01*
X262848Y125431D01*
X262872D01*
X262938Y125435D01*
X263000Y125445D01*
X263057Y125464D01*
X263104Y125483D01*
X263146Y125497D01*
X263180Y125516D01*
X263199Y125525D01*
X263208Y125530D01*
X263265Y125573D01*
X263312Y125615D01*
X263355Y125667D01*
X263388Y125710D01*
X263416Y125752D01*
X263435Y125785D01*
X263449Y125809D01*
X263454Y125819D01*
X263482Y125890D01*
X263501Y125961D01*
X263520Y126027D01*
X263530Y126088D01*
X263534Y126140D01*
X263539Y126183D01*
Y126206D01*
Y126216D01*
X263530Y126329D01*
X263511Y126429D01*
X263478Y126519D01*
X263444Y126590D01*
X263411Y126651D01*
X263378Y126694D01*
X263359Y126717D01*
X263350Y126727D01*
X263274Y126793D01*
X263199Y126840D01*
X263118Y126878D01*
X263047Y126902D01*
X262981Y126916D01*
X262934Y126921D01*
X262915Y126925D01*
D02*
G37*
G36*
X269225Y128065D02*
X268193D01*
X268066Y128061D01*
X267957Y128042D01*
X267862Y128018D01*
X267791Y127990D01*
X267730Y127961D01*
X267692Y127938D01*
X267668Y127919D01*
X267659Y127914D01*
X267602Y127852D01*
X267560Y127791D01*
X267531Y127725D01*
X267508Y127668D01*
X267498Y127611D01*
X267493Y127569D01*
X267489Y127540D01*
Y127535D01*
Y127531D01*
X267493Y127474D01*
X267503Y127417D01*
X267517Y127370D01*
X267531Y127327D01*
X267550Y127290D01*
X267564Y127261D01*
X267574Y127242D01*
X267579Y127238D01*
X267612Y127190D01*
X267654Y127148D01*
X267697Y127115D01*
X267739Y127086D01*
X267777Y127067D01*
X267806Y127053D01*
X267825Y127044D01*
X267834Y127039D01*
X267900Y127020D01*
X267976Y127006D01*
X268052Y126996D01*
X268127Y126992D01*
X268193Y126987D01*
X268250Y126982D01*
X269225D01*
Y128065D01*
D02*
G37*
G36*
X165299Y129640D02*
X164268D01*
X164140Y129635D01*
X164032Y129616D01*
X163937Y129593D01*
X163866Y129564D01*
X163805Y129536D01*
X163767Y129512D01*
X163743Y129493D01*
X163734Y129489D01*
X163677Y129427D01*
X163634Y129366D01*
X163606Y129300D01*
X163582Y129243D01*
X163573Y129186D01*
X163568Y129144D01*
X163564Y129115D01*
Y129110D01*
Y129106D01*
X163568Y129049D01*
X163578Y128992D01*
X163592Y128945D01*
X163606Y128902D01*
X163625Y128864D01*
X163639Y128836D01*
X163649Y128817D01*
X163653Y128812D01*
X163687Y128765D01*
X163729Y128723D01*
X163772Y128689D01*
X163814Y128661D01*
X163852Y128642D01*
X163880Y128628D01*
X163899Y128618D01*
X163909Y128614D01*
X163975Y128595D01*
X164051Y128581D01*
X164126Y128571D01*
X164202Y128566D01*
X164268Y128562D01*
X164325Y128557D01*
X165299D01*
Y129640D01*
D02*
G37*
G36*
X165280Y124494D02*
X164249D01*
X164122Y124489D01*
X164013Y124470D01*
X163918Y124446D01*
X163847Y124418D01*
X163786Y124390D01*
X163748Y124366D01*
X163724Y124347D01*
X163715Y124342D01*
X163658Y124281D01*
X163616Y124219D01*
X163587Y124153D01*
X163564Y124096D01*
X163554Y124040D01*
X163549Y123997D01*
X163545Y123969D01*
Y123964D01*
Y123959D01*
X163549Y123902D01*
X163559Y123846D01*
X163573Y123798D01*
X163587Y123756D01*
X163606Y123718D01*
X163620Y123689D01*
X163630Y123671D01*
X163634Y123666D01*
X163668Y123619D01*
X163710Y123576D01*
X163753Y123543D01*
X163795Y123514D01*
X163833Y123496D01*
X163862Y123481D01*
X163880Y123472D01*
X163890Y123467D01*
X163956Y123448D01*
X164032Y123434D01*
X164107Y123425D01*
X164183Y123420D01*
X164249Y123415D01*
X164306Y123410D01*
X165280D01*
Y124494D01*
D02*
G37*
G36*
X158753Y124205D02*
Y122739D01*
X159784D01*
X158753Y124205D01*
D02*
G37*
G36*
X287561Y127403D02*
X287514D01*
X287396Y127399D01*
X287282Y127380D01*
X287183Y127351D01*
X287098Y127323D01*
X287027Y127290D01*
X286999Y127276D01*
X286975Y127266D01*
X286951Y127252D01*
X286937Y127247D01*
X286932Y127238D01*
X286928D01*
X286838Y127172D01*
X286757Y127096D01*
X286686Y127020D01*
X286630Y126944D01*
X286587Y126878D01*
X286554Y126821D01*
X286544Y126803D01*
X286535Y126788D01*
X286530Y126779D01*
Y126774D01*
X286483Y126661D01*
X286450Y126542D01*
X286426Y126424D01*
X286412Y126315D01*
X286403Y126268D01*
X286398Y126221D01*
Y126183D01*
X286393Y126145D01*
Y126117D01*
Y126098D01*
Y126084D01*
Y126079D01*
X286398Y125951D01*
X286407Y125833D01*
X286426Y125724D01*
X286455Y125620D01*
X286483Y125530D01*
X286516Y125445D01*
X286549Y125365D01*
X286582Y125294D01*
X286620Y125232D01*
X286653Y125180D01*
X286686Y125138D01*
X286715Y125100D01*
X286738Y125071D01*
X286757Y125048D01*
X286771Y125038D01*
X286776Y125033D01*
X286876Y125109D01*
X286975Y125171D01*
X287079Y125223D01*
X287178Y125270D01*
X287263Y125303D01*
X287301Y125317D01*
X287334Y125327D01*
X287358Y125336D01*
X287377Y125341D01*
X287391Y125346D01*
X287396D01*
X287505Y125033D01*
X287420Y125010D01*
X287339Y124981D01*
X287268Y124948D01*
X287202Y124920D01*
X287150Y124892D01*
X287107Y124868D01*
X287084Y124849D01*
X287074Y124844D01*
X287150Y124816D01*
X287230Y124797D01*
X287301Y124778D01*
X287372Y124769D01*
X287429Y124764D01*
X287472Y124759D01*
X287514D01*
X287604Y124764D01*
X287689Y124773D01*
X287770Y124792D01*
X287850Y124811D01*
X287921Y124840D01*
X287987Y124868D01*
X288049Y124896D01*
X288101Y124929D01*
X288153Y124963D01*
X288195Y124991D01*
X288233Y125019D01*
X288266Y125048D01*
X288290Y125067D01*
X288309Y125085D01*
X288318Y125095D01*
X288323Y125100D01*
X288380Y125166D01*
X288427Y125242D01*
X288470Y125317D01*
X288503Y125398D01*
X288536Y125478D01*
X288560Y125558D01*
X288597Y125719D01*
X288607Y125790D01*
X288616Y125861D01*
X288626Y125923D01*
X288630Y125975D01*
X288635Y126017D01*
Y126050D01*
Y126069D01*
Y126079D01*
X288630Y126197D01*
X288621Y126311D01*
X288607Y126415D01*
X288583Y126509D01*
X288560Y126599D01*
X288536Y126680D01*
X288507Y126755D01*
X288474Y126821D01*
X288446Y126878D01*
X288418Y126930D01*
X288394Y126973D01*
X288366Y127006D01*
X288347Y127034D01*
X288332Y127053D01*
X288323Y127063D01*
X288318Y127067D01*
X288257Y127129D01*
X288191Y127176D01*
X288124Y127224D01*
X288058Y127261D01*
X287987Y127295D01*
X287921Y127323D01*
X287859Y127342D01*
X287793Y127361D01*
X287736Y127375D01*
X287684Y127384D01*
X287637Y127394D01*
X287595Y127399D01*
X287561Y127403D01*
D02*
G37*
G36*
X163754Y176280D02*
Y174814D01*
X164786D01*
X163754Y176280D01*
D02*
G37*
G36*
X167070Y176616D02*
X167023D01*
X166904Y176611D01*
X166791Y176592D01*
X166692Y176564D01*
X166606Y176535D01*
X166536Y176502D01*
X166507Y176488D01*
X166483Y176479D01*
X166460Y176464D01*
X166446Y176460D01*
X166441Y176450D01*
X166436D01*
X166346Y176384D01*
X166266Y176308D01*
X166195Y176233D01*
X166138Y176157D01*
X166096Y176091D01*
X166063Y176034D01*
X166053Y176015D01*
X166044Y176001D01*
X166039Y175991D01*
Y175987D01*
X165992Y175873D01*
X165958Y175755D01*
X165935Y175637D01*
X165921Y175528D01*
X165911Y175481D01*
X165907Y175433D01*
Y175396D01*
X165902Y175358D01*
Y175329D01*
Y175310D01*
Y175296D01*
Y175292D01*
X165907Y175164D01*
X165916Y175046D01*
X165935Y174937D01*
X165963Y174833D01*
X165992Y174743D01*
X166025Y174658D01*
X166058Y174577D01*
X166091Y174506D01*
X166129Y174445D01*
X166162Y174393D01*
X166195Y174350D01*
X166223Y174312D01*
X166247Y174284D01*
X166266Y174260D01*
X166280Y174251D01*
X166285Y174246D01*
X166384Y174322D01*
X166483Y174383D01*
X166588Y174435D01*
X166687Y174483D01*
X166772Y174516D01*
X166810Y174530D01*
X166843Y174539D01*
X166867Y174549D01*
X166886Y174554D01*
X166900Y174558D01*
X166904D01*
X167013Y174246D01*
X166928Y174223D01*
X166848Y174194D01*
X166777Y174161D01*
X166711Y174133D01*
X166658Y174104D01*
X166616Y174081D01*
X166592Y174062D01*
X166583Y174057D01*
X166658Y174029D01*
X166739Y174010D01*
X166810Y173991D01*
X166881Y173981D01*
X166938Y173977D01*
X166980Y173972D01*
X167023D01*
X167113Y173977D01*
X167198Y173986D01*
X167278Y174005D01*
X167359Y174024D01*
X167429Y174052D01*
X167496Y174081D01*
X167557Y174109D01*
X167609Y174142D01*
X167661Y174175D01*
X167704Y174204D01*
X167742Y174232D01*
X167775Y174260D01*
X167798Y174279D01*
X167817Y174298D01*
X167827Y174308D01*
X167832Y174312D01*
X167888Y174379D01*
X167936Y174454D01*
X167978Y174530D01*
X168011Y174610D01*
X168044Y174691D01*
X168068Y174771D01*
X168106Y174932D01*
X168115Y175003D01*
X168125Y175074D01*
X168134Y175135D01*
X168139Y175187D01*
X168144Y175230D01*
Y175263D01*
Y175282D01*
Y175292D01*
X168139Y175410D01*
X168130Y175523D01*
X168115Y175627D01*
X168092Y175722D01*
X168068Y175812D01*
X168044Y175892D01*
X168016Y175968D01*
X167983Y176034D01*
X167955Y176091D01*
X167926Y176143D01*
X167903Y176185D01*
X167874Y176218D01*
X167855Y176247D01*
X167841Y176266D01*
X167832Y176275D01*
X167827Y176280D01*
X167765Y176341D01*
X167699Y176389D01*
X167633Y176436D01*
X167567Y176474D01*
X167496Y176507D01*
X167429Y176535D01*
X167368Y176554D01*
X167302Y176573D01*
X167245Y176587D01*
X167193Y176597D01*
X167146Y176606D01*
X167103Y176611D01*
X167070Y176616D01*
D02*
G37*
%LPD*%
D10*
X283858Y118110D02*
G03*
X283858Y118110I-492J0D01*
G01*
X169095Y157874D02*
G03*
X169095Y157874I-492J0D01*
G01*
D11*
X284646Y110236D02*
Y114173D01*
Y110236D02*
X287697D01*
X296457D02*
Y114173D01*
X293406Y110236D02*
X296457D01*
X167323Y161811D02*
Y165748D01*
X164272D02*
X167323D01*
X155512Y161811D02*
Y165748D01*
X158563D01*
D56*
X192461Y94311D02*
G03*
X187461Y94311I-2500J0D01*
G01*
X184626Y43091D02*
G03*
X184626Y38091I0J-2500D01*
G01*
X179961Y94311D02*
Y179311D01*
X199961D01*
Y94311D02*
Y179311D01*
X179961Y94311D02*
X199961D01*
X184626Y30591D02*
Y50591D01*
X99626D02*
X184626D01*
X99626Y30591D02*
Y50591D01*
Y30591D02*
X184626D01*
M02*
