M48
;Layer_Color=6321
;FILE_FORMAT=2:5
INCH,LZ
;TYPE=PLATED
T1F00S00C0.01600
T2F00S00C0.02800
T3F00S00C0.03346
T4F00S00C0.03543
T5F00S00C0.04000
T6F00S00C0.05906
%
T01
X0032677Y0037795
X0056102Y0015059
X0049311Y0083661
X0064961Y0111221
X0064945Y011711
X0057776Y0118898
X0078051Y013189
X0072835Y015
X0193307Y0134252
X0163647Y010056
X0166535Y0084252
X0206693Y003937
X0257874Y0019685
X0293307Y0070866
X0293553Y0126673
X0255906Y0123622
X0240108Y0106988
X0329724Y0120079
X0286417Y017815
X0167433Y0169574
X0157087Y0174016
X0129134Y0167323
X0109055
X0121653Y0182677
T02
X0084646Y0027559
X0073819Y0116142
X0133858Y0122047
X0129528Y0102362
X0161417Y0033465
X0134646Y017126
T03
X0309055Y0095
Y0105
X0249173Y0174213
X0239173
X0224488
X0214488
X0173228Y0185039
X0163228
X0064468Y0191772
Y0201772
X0055118Y0179134
X0045118
T04
X0106653Y0009843
X0116654
X0126654
X0136653
X0146653
X0156653
X0166654
X0176654
T05
X0107126Y0025591
X0117126
X0127126
X0137126
X0147126
Y005559
X0137126
X0127126
X0117126
X0107126
X0088425Y0108898
Y0118898
Y0128898
Y0138898
Y0148898
X0148425
Y0138898
Y0128898
Y0118898
Y0108898
X0174961Y0111811
Y0121811
Y0131811
Y0141811
Y0151811
X0204961
Y0141811
Y0131811
Y0121811
Y0111811
Y0101811
X0174961
X0177126Y005559
X0167126
X0157126
Y0025591
X0167126
X0177126
X0174961Y0161811
Y0171811
X0204961
Y0161811
X0148425Y0158898
Y0168898
Y0178898
Y0188898
Y0198898
Y0208898
Y0218898
X0088425
Y0208898
Y0198898
Y0188898
Y0178898
Y0168898
Y0158898
T06
X0008661Y0008661
X0199606
X0175197Y0216142
X006811Y0215748
M30
